<?xml version="1.0" encoding="UTF-8"?>
<svg version="1.1" xmlns="http://www.w3.org/2000/svg" width="512" height="512">
<path d="M0 0 C1.63309093 -0.00417981 3.26617895 -0.00966086 4.89926165 -0.01631981 C9.35827209 -0.03070842 13.81709665 -0.0265504 18.27611697 -0.019153 C23.0962963 -0.01440722 27.91643623 -0.02694366 32.73660278 -0.03717041 C42.16887874 -0.05433651 51.60108802 -0.05520291 61.03337554 -0.04995751 C68.70316225 -0.04591028 76.3729293 -0.04736593 84.04271507 -0.05270576 C85.68234457 -0.0538284 85.68234457 -0.0538284 87.35509789 -0.05497371 C89.57596551 -0.05650525 91.79683314 -0.05804359 94.01770075 -0.05958868 C114.82887802 -0.07330595 135.64001767 -0.06788159 156.45119407 -0.05640347 C175.47132249 -0.04647324 194.4913536 -0.05940951 213.51146702 -0.08333766 C233.06227401 -0.10774727 252.61303572 -0.11733186 272.16385764 -0.11068493 C283.13174659 -0.10719668 294.09956073 -0.10939867 305.06743813 -0.12693596 C314.40469083 -0.14168127 323.74181605 -0.142263 333.07906631 -0.12486505 C337.83843908 -0.11637164 342.59758433 -0.11416479 347.35694504 -0.1295166 C351.7225472 -0.14342339 356.08772823 -0.13852421 360.4533064 -0.11927737 C362.02386249 -0.11553531 363.59445281 -0.11838696 365.16497824 -0.12888902 C385.88154904 -0.25745587 403.33778018 5.91590528 418.62419128 20.38768005 C423.83434634 25.72855585 427.53892735 31.67153485 430.93669128 38.26268005 C431.42528625 39.19769348 431.42528625 39.19769348 431.92375183 40.15159607 C437.3747468 51.2761624 438.06296219 62.58622921 438.01187134 74.76348877 C438.01605115 76.3965797 438.02153219 78.02966772 438.02819115 79.66275042 C438.04257976 84.12176085 438.03842174 88.58058542 438.03102434 93.03960574 C438.02627856 97.85978507 438.038815 102.679925 438.04904175 107.50009155 C438.06620785 116.93236751 438.06707425 126.36457679 438.06182884 135.79686431 C438.05778162 143.46665102 438.05923727 151.13641807 438.0645771 158.80620384 C438.06532552 159.89929017 438.06607395 160.9923765 438.06684505 162.11858666 C438.06837658 164.33945428 438.06991493 166.56032191 438.07146002 168.78118952 C438.08517729 189.59236679 438.07975293 210.40350644 438.0682748 231.21468284 C438.05834458 250.23481126 438.07128085 269.25484237 438.095209 288.27495579 C438.11961861 307.82576278 438.1292032 327.37652449 438.12255627 346.92734641 C438.11906802 357.89523536 438.12127001 368.8630495 438.1388073 379.8309269 C438.15355261 389.1681796 438.15413434 398.50530482 438.13673639 407.84255508 C438.12824298 412.60192785 438.12603613 417.3610731 438.14138794 422.12043381 C438.15529472 426.48603597 438.15039554 430.851217 438.1311487 435.21679517 C438.12740664 436.78735126 438.1302583 438.35794158 438.14076035 439.92846701 C438.27271023 461.19016003 431.7270297 478.93864477 416.62419128 494.38768005 C400.94936709 508.34471529 383.76415663 512.86143599 363.24838257 512.77536011 C361.61529164 512.77953992 359.98220362 512.78502096 358.34912091 512.79167992 C353.89011048 512.80606853 349.43128592 512.80191051 344.9722656 512.79451311 C340.15208627 512.78976733 335.33194634 512.80230377 330.51177979 512.81253052 C321.07950383 512.82969662 311.64729455 512.83056302 302.21500703 512.82531761 C294.54522032 512.82127039 286.87545327 512.82272604 279.2056675 512.82806587 C277.566038 512.82918851 277.566038 512.82918851 275.89328468 512.83033382 C273.67241705 512.83186535 271.45154943 512.8334037 269.23068181 512.83494879 C248.41950455 512.84866606 227.6083649 512.8432417 206.7971885 512.83176357 C187.77706008 512.82183335 168.75702896 512.83476962 149.73691555 512.85869776 C130.18610856 512.88310738 110.63534685 512.89269197 91.08452493 512.88604504 C80.11663598 512.88255679 69.14882184 512.88475878 58.18094444 512.90229607 C48.84369174 512.91704138 39.50656652 512.91762311 30.16931625 512.90022516 C25.40994349 512.89173174 20.65079824 512.8895249 15.89143753 512.90487671 C11.52583537 512.91878349 7.16065434 512.91388431 2.79507617 512.89463747 C1.22452008 512.89089541 -0.34607024 512.89374707 -1.91659568 512.90424912 C-23.17828869 513.036199 -40.92677344 506.49051847 -56.37580872 491.38768005 C-70.33284395 475.71285586 -74.84956465 458.5276454 -74.76348877 438.01187134 C-74.76766858 436.37878041 -74.77314963 434.74569239 -74.77980858 433.11260968 C-74.79419719 428.65359925 -74.79003917 424.19477469 -74.78264177 419.73575437 C-74.77789599 414.91557504 -74.79043243 410.0954351 -74.80065918 405.27526855 C-74.81782528 395.8429926 -74.81869168 386.41078332 -74.81344628 376.9784958 C-74.80939905 369.30870909 -74.8108547 361.63894204 -74.81619453 353.96915627 C-74.81694296 352.87606994 -74.81769138 351.78298361 -74.81846248 350.65677345 C-74.81999402 348.43590582 -74.82153236 346.2150382 -74.82307745 343.99417058 C-74.83679472 323.18299331 -74.83137036 302.37185367 -74.81989224 281.56067727 C-74.80996201 262.54054885 -74.82289828 243.52051773 -74.84682643 224.50040432 C-74.87123604 204.94959733 -74.88082063 185.39883562 -74.8741737 165.8480137 C-74.87068545 154.88012475 -74.87288744 143.91231061 -74.89042473 132.94443321 C-74.90517004 123.60718051 -74.90575177 114.27005529 -74.88835382 104.93280502 C-74.87986041 100.17343226 -74.87765356 95.41428701 -74.89300537 90.6549263 C-74.90691216 86.28932414 -74.90201297 81.92414311 -74.88276614 77.55856494 C-74.87902408 75.98800885 -74.88187573 74.41741853 -74.89237779 72.84689309 C-75.02094464 52.1303223 -68.84758349 34.67409116 -54.37580872 19.38768005 C-49.03493292 14.17752499 -43.09195392 10.47294399 -36.50080872 7.07518005 C-35.87746643 6.74945007 -35.25412415 6.42372009 -34.6118927 6.08811951 C-23.48732637 0.63712453 -12.17725956 -0.05109085 0 0 Z " fill="#3A559F" transform="translate(74.37580871582031,-0.3876800537109375)"/>
<path d="M0 0 C1.0658432 -0.00570007 2.1316864 -0.01140015 3.22982788 -0.01727295 C5.47384661 -0.02668425 7.71787893 -0.03324146 9.96191406 -0.03710938 C13.39412233 -0.04686274 16.82574328 -0.0779422 20.2578125 -0.109375 C22.44270479 -0.11590131 24.62760135 -0.12115324 26.8125 -0.125 C27.83654938 -0.1373468 28.86059875 -0.1496936 29.91567993 -0.16241455 C38.86818165 -0.13437064 38.86818165 -0.13437064 42.7734375 3.203125 C43.92768481 5.51161963 43.9298412 6.91079184 43.98217773 9.48168945 C44.00146835 10.36633377 44.02075897 11.25097809 44.04063416 12.16242981 C44.09833428 16.21005216 44.14764741 20.25749617 44.1784668 24.30541992 C44.20006127 26.44034994 44.23418106 28.5751911 44.28100586 30.7097168 C44.34791608 33.78734886 44.37545047 36.86315002 44.39453125 39.94140625 C44.42236191 40.89364578 44.45019257 41.84588531 44.47886658 42.82698059 C44.45931989 49.12601708 44.45931989 49.12601708 42.67417908 51.92939758 C39.49837466 54.96333484 36.29202935 55.7763062 31.98820496 55.81947327 C31.28182388 55.8029924 30.57544281 55.78651154 29.84765625 55.76953125 C29.10062943 55.77516586 28.3536026 55.78080048 27.5839386 55.78660583 C25.2089573 55.8029769 22.83585178 55.78760377 20.4609375 55.765625 C4.79340356 55.23554583 4.79340356 55.23554583 -8.6015625 62.390625 C-12.82830993 69.70614939 -13.68281105 76.81311723 -13.73828125 85.14453125 C-13.76520805 86.65695656 -13.76520805 86.65695656 -13.79267883 88.19993591 C-13.84642379 91.38845767 -13.88056223 94.57683286 -13.9140625 97.765625 C-13.94726719 99.94077545 -13.98175973 102.11590664 -14.01757812 104.29101562 C-14.10212913 109.5949205 -14.17062892 114.89884522 -14.2265625 120.203125 C-13.56337006 120.19202194 -12.90017761 120.18091888 -12.21688843 120.16947937 C-5.30635055 120.05875135 1.60393481 119.98340132 8.51513672 119.9284668 C11.09336587 119.9033426 13.67152393 119.86923741 16.24951172 119.82592773 C19.95818636 119.76518836 23.66591825 119.73689303 27.375 119.71484375 C28.52521637 119.68903732 29.67543274 119.6632309 30.86050415 119.63664246 C39.80552471 119.63351649 39.80552471 119.63351649 43.51611328 122.44995117 C45.8606401 125.30948274 46.51656521 126.14749598 46.2890625 129.7421875 C46.20688477 131.18319824 46.20688477 131.18319824 46.12304688 132.65332031 C46.00767578 133.82475586 45.89230469 134.99619141 45.7734375 136.203125 C45.70648682 136.92334839 45.63953613 137.64357178 45.57055664 138.38562012 C45.08158559 143.55060906 44.49389433 148.69945606 43.85693359 153.84814453 C43.5218574 156.59105958 43.21189908 159.33613366 42.90234375 162.08203125 C42.68903125 163.83872828 42.47424 165.59524652 42.2578125 167.3515625 C42.16908875 168.16619965 42.08036499 168.98083679 41.98895264 169.82015991 C41.35285403 174.69565357 40.39704949 177.62043318 36.7734375 181.203125 C34.33376253 182.42296248 32.77439226 182.32364027 30.04833984 182.31665039 C29.06747406 182.31657486 28.08660828 182.31649933 27.07601929 182.31642151 C26.01452667 182.31126022 24.95303406 182.30609894 23.859375 182.30078125 C22.23221054 182.29865883 22.23221054 182.29865883 20.57217407 182.29649353 C17.0975675 182.29088302 13.62302469 182.27832872 10.1484375 182.265625 C7.79687593 182.26061135 5.44531335 182.25604821 3.09375 182.25195312 C-2.67970936 182.24091018 -8.45313138 182.22416179 -14.2265625 182.203125 C-14.22287533 182.89003796 -14.21918816 183.57695091 -14.21538925 184.28467941 C-14.12708002 200.9931405 -14.06087336 217.70152774 -14.01931381 234.41016769 C-13.99868209 242.49032722 -13.97055 250.57033104 -13.92480469 258.65039062 C-13.8849554 265.69237981 -13.85913412 272.73425623 -13.85020852 279.77635503 C-13.84499047 283.50569569 -13.83271399 287.23471377 -13.80364227 290.96395111 C-13.77146288 295.12552749 -13.77060185 299.28654184 -13.77246094 303.44824219 C-13.75807983 304.68686005 -13.74369873 305.92547791 -13.72888184 307.20162964 C-13.73438049 308.33462494 -13.73987915 309.46762024 -13.74554443 310.63494873 C-13.74185726 311.61942364 -13.73817009 312.60389854 -13.73437119 313.61820602 C-14.36705339 316.94096321 -15.61029584 318.12732453 -18.2265625 320.203125 C-20.66151428 320.71105957 -20.66151428 320.71105957 -23.40649414 320.72070312 C-24.43758804 320.73331177 -25.46868195 320.74592041 -26.53102112 320.75891113 C-27.63840134 320.75081421 -28.74578156 320.74271729 -29.88671875 320.734375 C-31.59884804 320.74011536 -31.59884804 320.74011536 -33.3455658 320.74597168 C-35.75716026 320.74869253 -38.16878416 320.74131935 -40.58032227 320.72460938 C-44.27882373 320.70318431 -47.97538678 320.72441717 -51.67382812 320.75 C-54.0156293 320.74735714 -56.35742927 320.74223304 -58.69921875 320.734375 C-59.8086232 320.74247192 -60.91802765 320.75056885 -62.06105042 320.75891113 C-63.60296303 320.73999817 -63.60296303 320.73999817 -65.17602539 320.72070312 C-66.08107315 320.71752075 -66.98612091 320.71433838 -67.91859436 320.71105957 C-70.2265625 320.203125 -70.2265625 320.203125 -71.84826279 318.51939011 C-73.54295965 315.67141215 -73.59660161 313.9370485 -73.58732605 310.63494873 C-73.59145004 309.50195343 -73.59557404 308.36895813 -73.599823 307.20162964 C-73.58903717 305.96301178 -73.57825134 304.72439392 -73.56713867 303.44824219 C-73.56779579 301.48689835 -73.56779579 301.48689835 -73.56846619 299.4859314 C-73.56932689 295.90351408 -73.55168928 292.32139814 -73.53074431 288.73905087 C-73.51198987 284.99411993 -73.51022805 281.24918208 -73.50666809 277.50421143 C-73.49734399 270.41400135 -73.47272531 263.32393006 -73.44261962 256.2337811 C-73.40908694 248.16131013 -73.39259246 240.08883254 -73.37753332 232.01630926 C-73.34617603 215.41183327 -73.2934085 198.80749684 -73.2265625 182.203125 C-74.32121826 182.22407227 -75.41587402 182.24501953 -76.54370117 182.26660156 C-80.6156703 182.33915209 -84.68758261 182.38497909 -88.76000977 182.42285156 C-90.52052425 182.44293286 -92.28097232 182.47020379 -94.04125977 182.50488281 C-96.57585052 182.55355612 -99.10955745 182.57612805 -101.64453125 182.59375 C-102.42805466 182.61439514 -103.21157806 182.63504028 -104.0188446 182.65631104 C-107.80724112 182.65785693 -109.9755703 182.36343362 -113.20043945 180.30371094 C-116.16183174 177.23348329 -116.360841 175.53142689 -116.43530273 171.3737793 C-116.45459335 170.36901047 -116.47388397 169.36424164 -116.49375916 168.32902527 C-116.55139955 163.73183691 -116.60076984 159.13480656 -116.6315918 154.53735352 C-116.6531924 152.11142764 -116.68731903 149.68558013 -116.73413086 147.26000977 C-116.80098198 143.7654331 -116.82856716 140.27246884 -116.84765625 136.77734375 C-116.87548691 135.69386154 -116.90331757 134.61037933 -116.93199158 133.49406433 C-116.91247615 126.36016524 -116.91247615 126.36016524 -115.15380859 123.39353943 C-111.80054461 120.13519881 -108.33718675 119.63438175 -103.9055481 119.63664246 C-103.12718597 119.66244888 -102.34882385 119.68825531 -101.546875 119.71484375 C-100.32772903 119.72545586 -100.32772903 119.72545586 -99.08395386 119.73628235 C-96.50552627 119.76411826 -93.92932588 119.82683089 -91.3515625 119.890625 C-89.59638568 119.91572209 -87.84117459 119.93853279 -86.0859375 119.95898438 C-81.79863003 120.01390877 -77.51297294 120.10010153 -73.2265625 120.203125 C-73.23322433 119.56213867 -73.23988617 118.92115234 -73.24674988 118.26074219 C-73.31379123 111.5107939 -73.35864451 104.76094214 -73.39135742 98.01074219 C-73.40632356 95.5009374 -73.42670372 92.99115821 -73.45288086 90.48144531 C-73.71234736 64.94180161 -72.15890951 39.49080522 -53.4765625 19.890625 C-38.4180958 5.6547756 -20.29734939 0.08456978 0 0 Z " fill="#FEFEFE" transform="translate(291.2265625,95.796875)"/>
</svg>
