<?xml version="1.0" standalone="no"?>
<!DOCTYPE svg PUBLIC "-//W3C//DTD SVG 20010904//EN"
 "http://www.w3.org/TR/2001/REC-SVG-20010904/DTD/svg10.dtd">
<svg version="1.0" xmlns="http://www.w3.org/2000/svg"
 width="228.000000pt" height="228.000000pt" viewBox="0 0 228.000000 228.000000"
 preserveAspectRatio="xMidYMid meet">

<g transform="translate(0.000000,228.000000) scale(0.100000,-0.100000)"
fill="#000000" stroke="none">
<path d="M1128 1900 c-317 -38 -586 -274 -669 -586 -30 -111 -30 -288 0 -398
75 -281 296 -500 576 -572 94 -24 283 -24 380 -1 258 64 474 263 560 518 167
489 -182 1008 -700 1042 -44 2 -110 1 -147 -3z m366 -445 c20 -52 62 -90 108
-100 18 -4 39 -12 46 -17 15 -13 17 -200 1 -229 -21 -40 -29 -7 -22 96 6 97 5
105 -13 111 -89 28 -140 71 -151 125 l-5 29 -229 0 c-216 0 -229 -1 -229 -18
0 -11 -13 -37 -28 -58 -26 -35 -62 -58 -126 -78 -17 -6 -18 -15 -14 -111 3
-57 3 -106 0 -109 -3 -3 -11 -1 -19 5 -18 15 -19 222 0 237 6 5 27 13 45 17
42 9 86 46 102 87 24 60 13 58 275 58 l242 0 17 -45z m-43 -61 c17 -25 56 -61
86 -81 l55 -35 -4 -112 c-6 -123 -25 -191 -80 -284 -67 -112 -237 -252 -291
-239 -70 18 -208 143 -266 242 -55 92 -73 157 -79 281 l-4 112 55 35 c30 20
69 56 86 81 l32 46 189 0 189 0 32 -46z m-583 -413 c28 -87 88 -180 163 -251
60 -57 171 -130 199 -130 30 0 143 76 205 137 74 73 124 151 157 246 13 39 29
67 37 67 23 0 6 -66 -40 -160 -57 -113 -178 -238 -290 -295 l-75 -38 -83 49
c-114 67 -216 175 -270 285 -47 94 -63 159 -39 159 9 0 22 -26 36 -69z"/>
<path d="M1031 1366 c-17 -24 -54 -58 -82 -76 l-52 -31 5 -92 c11 -198 99
-348 272 -463 l57 -37 70 48 c163 111 258 287 259 478 l0 67 -50 31 c-28 17
-64 51 -81 75 l-30 44 -169 0 -169 0 -30 -44z m269 -22 c40 -24 60 -65 60
-123 0 -44 3 -51 19 -51 42 0 51 -25 51 -140 0 -85 -3 -112 -16 -124 -23 -24
-345 -24 -368 0 -13 12 -16 39 -16 124 0 115 9 140 51 140 16 0 19 7 19 56 0
52 3 59 39 95 34 34 44 39 86 39 26 0 59 -7 75 -16z"/>
<path d="M1181 1316 c-33 -18 -50 -53 -51 -103 l0 -43 100 0 100 0 0 40 c0 52
-18 88 -51 106 -34 17 -67 17 -98 0z"/>
<path d="M1074 1127 c-3 -8 -3 -56 -2 -108 l3 -94 149 -3 c101 -2 153 1 162 9
18 15 20 179 2 197 -18 18 -307 17 -314 -1z m179 -96 c-3 -61 -10 -76 -27 -62
-17 14 -31 85 -21 101 4 6 17 10 28 8 19 -3 22 -9 20 -47z"/>
</g>
</svg>
