<?xml version="1.0" encoding="UTF-8"?>
<svg version="1.1" xmlns="http://www.w3.org/2000/svg" width="512" height="512">
<path d="M0 0 C0.65328711 -0.00235223 1.30657423 -0.00470446 1.97965792 -0.00712797 C4.1720153 -0.01379284 6.36431308 -0.01336051 8.55667973 -0.01294994 C10.14319116 -0.01625014 11.72970175 -0.01997604 13.31621128 -0.02409142 C17.67889471 -0.03410196 22.04156437 -0.0378267 26.40425766 -0.04048073 C31.10864557 -0.04438664 35.81302263 -0.05396485 40.5174036 -0.0626936 C51.88070533 -0.08245086 63.24400794 -0.09252371 74.60732254 -0.10142139 C79.96057019 -0.10580587 85.31381685 -0.1111723 90.66706371 -0.11641026 C108.46647372 -0.1334225 126.2658831 -0.14791589 144.06529999 -0.155159 C148.68376955 -0.15706885 153.30223911 -0.15898918 157.92070866 -0.16094494 C159.64252483 -0.16167055 159.64252483 -0.16167055 161.39912517 -0.16241082 C179.98711031 -0.17070818 198.57503103 -0.19604017 217.16298806 -0.22852562 C236.25364474 -0.26161713 255.34426872 -0.27960969 274.43495423 -0.28280324 C285.15085727 -0.28496649 295.86666641 -0.29368807 306.58254147 -0.31926441 C315.710275 -0.34100005 324.83789181 -0.34900776 333.96564829 -0.33929763 C338.61954607 -0.33476112 343.27320317 -0.33660127 347.92706776 -0.35605907 C352.19542972 -0.37375026 356.46337648 -0.3726451 360.73174322 -0.35716178 C362.26817694 -0.3547947 363.80463986 -0.35906212 365.3410291 -0.37099043 C378.35162366 -0.46566936 390.02535951 1.8056051 401.64556217 7.88422108 C402.31539127 8.22928699 402.98522038 8.57435291 403.67534733 8.92987537 C422.28926392 18.8158535 434.16763999 35.00258533 440.45024967 54.78656483 C441.89269698 59.89473565 442.52157662 64.39998529 442.52978325 69.72024822 C442.53213548 70.37154737 442.53448771 71.02284651 442.53691122 71.69388199 C442.54357589 73.87948671 442.54314376 76.06503163 442.54273319 78.25064564 C442.54603341 79.83231958 442.54975931 81.41399268 442.55387467 82.99566472 C442.5638851 87.34501596 442.56760994 91.6943534 442.57026398 96.04371452 C442.57416996 100.73380652 442.5837482 105.42388763 442.59247684 110.11397266 C442.61223454 121.44316744 442.62230728 132.77236309 442.63120463 144.10157079 C442.63558929 149.43924848 442.6409557 154.77692518 442.6461935 160.11460209 C442.66320625 177.86339773 442.6776993 195.61219275 442.68494225 213.36099529 C442.68685209 217.96639348 442.68877242 222.57179166 442.69072819 227.17718983 C442.69121193 228.32181435 442.69169567 229.46643887 442.69219407 230.64574899 C442.70049015 249.17809319 442.72581975 267.71037276 442.75830887 286.24268876 C442.79140707 305.27797967 442.80939357 324.31323776 442.81258649 343.34855759 C442.81474919 354.03263457 442.82346257 364.71661734 442.84904766 375.40066624 C442.8707925 384.50202085 442.87878653 393.60325837 442.86908088 402.70463602 C442.86454694 407.34448114 442.86636939 411.98408485 442.88584232 416.6238966 C442.90355219 420.88059182 442.90241342 425.13687091 442.88694503 429.39357103 C442.88458074 430.92463902 442.88883055 432.45573642 442.90077368 433.98675965 C443.06403046 456.31791387 435.61780636 474.37412289 420.09087467 490.53265858 C407.2815946 502.83796697 389.58269782 511.24638203 371.69651794 511.26564884 C370.71947223 511.26872779 370.71947223 511.26872779 369.72268823 511.27186894 C367.54290252 511.2775175 365.36318042 511.27608436 363.18338871 511.27466297 C361.60355131 511.27724784 360.02371456 511.28026135 358.44387871 511.28366637 C354.10432516 511.29172539 349.76478815 511.29352533 345.425228 511.29426384 C340.74405498 511.29611633 336.06289052 511.30366469 331.38172245 511.31039906 C321.1459953 511.32397548 310.91027207 511.33000613 300.67453742 511.33440971 C294.28122706 511.33717351 287.88791822 511.34141114 281.49460888 511.34591389 C263.78780144 511.35810605 246.0809952 511.36840521 228.37418365 511.37178898 C226.67456112 511.37211833 226.67456112 511.37211833 224.94060278 511.37245433 C223.80483233 511.37267261 222.66906187 511.37289089 221.49887413 511.37311578 C219.19742835 511.37355924 216.89598256 511.3740058 214.59453678 511.37445545 C213.45294375 511.37467688 212.31135073 511.37489831 211.13516397 511.37512645 C192.64357736 511.37907318 174.15203018 511.39652363 155.6604588 511.41981497 C136.66808608 511.44354367 117.67573315 511.45599154 98.68334538 511.4571569 C88.02284031 511.45807284 77.36238661 511.46380491 66.70189571 511.48197651 C57.62284528 511.49739803 48.54386211 511.50248588 39.46480107 511.49423841 C34.83536402 511.49033907 30.20606232 511.49122641 25.57664204 511.50529575 C21.33186894 511.51807772 17.08733231 511.51679967 12.84255935 511.50470504 C11.3135785 511.50275545 9.78458064 511.50579207 8.25562363 511.5145494 C-4.06910625 511.58062577 -15.70976851 510.31622449 -26.72943783 504.44672108 C-27.39902523 504.10004383 -28.06861263 503.75336658 -28.75849056 503.39618397 C-46.84360006 493.78907906 -60.07759947 479.36601494 -66.73623896 459.81022978 C-69.4140949 450.41713988 -70.17503971 441.57131869 -70.1123724 431.81525135 C-70.11699318 430.22494199 -70.12335392 428.63463692 -70.13128138 427.04434061 C-70.14783646 422.71746537 -70.13979203 418.39094722 -70.1273365 414.06407142 C-70.11823114 409.38095433 -70.13228277 404.69789574 -70.14325619 400.01479053 C-70.16098778 390.85762657 -70.1572254 381.70059419 -70.14560562 372.5434252 C-70.13655041 365.09729508 -70.13535632 357.65120169 -70.13970089 350.20506763 C-70.14031382 349.14291675 -70.14092675 348.08076586 -70.14155826 346.98642859 C-70.14283724 344.82829256 -70.14413409 342.67015654 -70.14544863 340.51202053 C-70.15683872 320.30313048 -70.14376539 300.09431316 -70.12224716 279.88543504 C-70.10437762 262.56744841 -70.10748217 245.24956905 -70.1259222 227.93158436 C-70.14735668 207.7920987 -70.15574023 187.65267669 -70.14347315 167.51318121 C-70.14219903 165.36324566 -70.14094155 163.21331009 -70.13970089 161.06337452 C-70.13877524 159.47690409 -70.13877524 159.47690409 -70.13783088 157.85838374 C-70.13438572 150.42628131 -70.14018832 142.99421945 -70.1496191 135.5621233 C-70.16086914 126.49758885 -70.15773605 117.43319286 -70.13649613 108.36867416 C-70.12602606 103.74902633 -70.12179443 99.12960885 -70.13509274 94.50996304 C-70.14710686 90.27214781 -70.14030738 86.0347741 -70.11918253 81.79699832 C-70.11475433 80.27296816 -70.11689635 78.74889985 -70.12668568 77.2248947 C-70.25883996 54.92113323 -62.80699861 36.87383518 -47.29975033 20.73578358 C-34.93362493 8.85619426 -17.33217163 0.026653 0 0 Z " fill="#0095FF" transform="translate(69.60443782806396,-0.13422107696533203)"/>
<path d="M0 0 C47.8352235 -0.16121214 47.8352235 -0.16121214 67.921875 -0.1953125 C81.77642762 -0.21902212 95.63088274 -0.24685434 109.48535156 -0.30175781 C119.57670206 -0.34172934 129.66797325 -0.3674574 139.75940073 -0.37635398 C145.09868911 -0.38155127 150.43775068 -0.39369591 155.77696609 -0.42292023 C160.81173241 -0.45025251 165.84618041 -0.45840926 170.88101387 -0.45243073 C172.71991651 -0.45352304 174.5588308 -0.46137006 176.39766884 -0.4768219 C190.41258538 -0.58872357 202.61734653 1.14176334 215.25 7.75 C216.25474365 8.26759888 216.25474365 8.26759888 217.27978516 8.7956543 C235.89370175 18.68163242 247.77207782 34.86836426 254.0546875 54.65234375 C255.4971348 59.76051457 256.12601444 64.26576421 256.13422108 69.58602715 C256.13657331 70.23732629 256.13892554 70.88862543 256.14134905 71.55966091 C256.14801372 73.74526563 256.14758159 75.93081055 256.14717102 78.11642456 C256.15047124 79.6980985 256.15419714 81.27977161 256.1583125 82.86144364 C256.16832293 87.21079488 256.17204777 91.56013232 256.17470181 95.90949345 C256.17860778 100.59958545 256.18818603 105.28966655 256.19691467 109.97975159 C256.21667237 121.30894636 256.22674511 132.63814201 256.23564246 143.96734971 C256.24002712 149.3050274 256.24539353 154.6427041 256.25063133 159.98038101 C256.26764408 177.72917665 256.28213713 195.47797168 256.28938007 213.22677422 C256.29128991 217.8321724 256.29321025 222.43757058 256.29516602 227.04296875 C256.29564976 228.18759327 256.2961335 229.3322178 256.2966319 230.51152791 C256.30492798 249.04387212 256.33025758 267.57615169 256.36274669 286.10846768 C256.3958449 305.14375859 256.41383139 324.17901669 256.41702431 343.21433651 C256.41918701 353.8984135 256.4279004 364.58239626 256.45348549 375.26644516 C256.47523033 384.36779978 256.48322436 393.4690373 256.47351871 402.57041495 C256.46898477 407.21026006 256.47080722 411.84986377 256.49028015 416.48967552 C256.50799002 420.74637074 256.50685125 425.00264984 256.49138286 429.25934996 C256.48901857 430.79041794 256.49326838 432.32151534 256.50521151 433.85253857 C256.66846829 456.18369279 249.22224418 474.23990182 233.6953125 490.3984375 C220.3942137 503.17621438 202.48542076 511.19409916 183.9894104 511.12025452 C182.8056575 511.12153615 182.8056575 511.12153615 181.59799039 511.12284368 C178.96325279 511.12448603 176.32857936 511.11899756 173.69384766 511.11352539 C171.8013611 511.11324322 169.90887443 511.11340183 168.01638794 511.1139679 C162.88466589 511.11425472 157.75296724 511.10837651 152.62125063 511.10139394 C147.25607707 511.09514131 141.89090296 511.09455509 136.52572632 511.09336853 C126.36862154 511.09026085 116.21152754 511.08205504 106.0544275 511.07201904 C94.48981819 511.06084043 82.92520836 511.05534304 71.36059499 511.05032361 C47.57372265 511.03987197 23.78686507 511.02153347 0 511 C0 491.2 0 471.4 0 451 C6.6 450.67 13.2 450.34 20 450 C25.89913353 446.34000408 25.89913353 446.34000408 29 441 C29.44555448 438.10101427 29.44555448 438.10101427 29.37854004 434.96125793 C29.39084404 433.14254684 29.39084404 433.14254684 29.40339661 431.28709412 C29.39743855 429.95156745 29.39121949 428.61604194 29.38476562 427.28051758 C29.38887289 425.86744753 29.39433469 424.45438087 29.40104675 423.0413208 C29.41276077 420.00202409 29.41525993 416.96290892 29.41069031 413.92359352 C29.40386981 409.11064554 29.41976891 404.29793538 29.43908691 399.48503113 C29.4769328 389.26086691 29.48973087 379.0367235 29.5 368.8125 C29.51108383 357.79070889 29.52655984 346.7690278 29.57071257 335.74731177 C29.58899641 330.97061628 29.59298684 326.19419353 29.58577728 321.41747153 C29.58424689 318.43419711 29.59509335 315.45105695 29.60915565 312.46781921 C29.61501565 310.44206653 29.60609595 308.41628762 29.59660339 306.39054871 C29.67068794 295.31242984 31.19021821 286.25184491 39 278 C44.7255043 272.61129007 52.1790874 269.98839594 60 269.625 C69.40461022 270.08006178 77.0861621 273.77904723 83.5 280.59375 C90.39111141 289.2896763 90.43146739 299.72810331 90.36889648 310.35058594 C90.37136937 311.77088205 90.37521271 313.19117633 90.38031006 314.61146545 C90.38859751 317.65014519 90.38788414 320.68863718 90.38012505 323.72731781 C90.36847329 328.53536034 90.38075992 333.34316474 90.39674377 338.15118408 C90.43281317 350.08557743 90.43916513 362.01996378 90.43664551 373.95440674 C90.43493358 383.24715293 90.44205528 392.5397027 90.47662407 401.83239388 C90.49339473 406.60944703 90.49164526 411.38602008 90.47580135 416.16307116 C90.4699997 419.13416295 90.48075164 422.10502745 90.49604797 425.07607841 C90.50154101 427.10495175 90.48717506 429.13384857 90.47218323 431.16267395 C90.42691759 439.94192506 90.42691759 439.94192506 95 447 C98.90629941 450.11603779 101.97136025 450.38213173 106.89819336 450.40405273 C107.57203568 450.41091599 108.24587799 450.41777924 108.94013977 450.42485046 C111.15692506 450.44307952 113.37299994 450.43928679 115.58984375 450.43359375 C117.13774342 450.43815756 118.68564106 450.44346374 120.23353577 450.44947815 C123.47405236 450.45840165 126.71432241 450.45599508 129.95483398 450.44604492 C134.09876834 450.43455799 138.24185019 450.45476549 142.38567257 450.48396206 C145.5813992 450.50234665 148.77692241 450.50202713 151.97268867 450.49632454 C153.5000484 450.49617159 155.02742215 450.50219423 156.55473137 450.51461601 C158.69449534 450.52956755 160.83269561 450.5188211 162.97241211 450.50170898 C164.1875499 450.50154282 165.40268768 450.50137665 166.65464783 450.50120544 C171.56768484 449.76512722 174.65923105 447.77819633 177.64753723 443.8149519 C179.35961054 440.25152367 179.38029929 437.6304557 179.38768005 433.67962646 C179.39306559 432.95230953 179.39845113 432.2249926 179.40399987 431.47563577 C179.41828459 429.04315438 179.41117431 426.61121683 179.40405273 424.17871094 C179.40975659 422.43217532 179.41672092 420.68564344 179.42485046 418.93911743 C179.44280983 414.19456808 179.44160649 409.45020345 179.43590808 404.7056303 C179.43281565 400.7354138 179.43891034 396.76523275 179.44494683 392.7950213 C179.45900387 383.41409881 179.45742516 374.03326732 179.44604492 364.65234375 C179.43460383 355.00890417 179.44856893 345.365744 179.4754414 335.7223413 C179.49769576 327.42223597 179.50421275 319.12221768 179.49836498 310.82208467 C179.49501237 305.87460545 179.49729473 300.92730463 179.51461601 295.97985077 C179.53023525 291.31430072 179.52596598 286.64915831 179.50731087 281.9836235 C179.50366383 280.28467505 179.50661777 278.58569541 179.51719666 276.88677597 C179.6704473 250.20630456 170.82495426 226.22926547 152.04296875 206.88671875 C133.04002474 188.28213321 106.01335651 179.39430173 79.73828125 179.64672852 C62.14804063 180.17740295 45.74796858 185.30608604 30 193 C29.63648438 192.18595703 29.63648438 192.18595703 29.265625 191.35546875 C26.70537714 185.7788472 26.70537714 185.7788472 22 182 C15.01430032 179.67143344 7.3533963 180.38702086 0 180 C0 120.6 0 61.2 0 0 Z " fill="#006EFF" transform="translate(256,0)"/>
<path d="M0 0 C18.44117296 15.68035782 31.03870564 37.61178238 33.54044533 61.90056586 C33.88923384 67.27952271 33.85843147 72.65798052 33.83007812 78.0456543 C33.83551519 79.811809 33.84264662 81.57795916 33.85131836 83.34410095 C33.86935189 88.08313141 33.86257197 92.82180858 33.84980202 97.56084418 C33.83958717 102.54145152 33.84908939 107.5220311 33.85534668 112.50263977 C33.86259116 120.85004043 33.85311212 129.19729875 33.83398438 137.54467773 C33.81214315 147.18746019 33.81933226 156.82990525 33.84129 166.47267979 C33.85944194 174.77796015 33.86200568 183.08313903 33.85153532 191.3884328 C33.84530935 196.33816589 33.84444171 201.2877402 33.85768127 206.237463 C33.86923892 210.88099705 33.86121578 215.52409464 33.83810425 220.16758156 C33.83282007 221.86954143 33.83432597 223.5715381 33.84315491 225.27348328 C33.85410401 227.59844064 33.84035721 229.92200322 33.82043457 232.24687195 C33.81892647 233.54664317 33.81741837 234.84641439 33.81586456 236.18557262 C33.04235363 241.56691907 30.610076 244.606412 26.50073242 248.03015137 C22.80616106 249.95071172 20.44829159 250.19418902 16.30078125 250.20507812 C15.28979874 250.21559204 15.28979874 250.21559204 14.25839233 250.22631836 C12.04683323 250.24381771 9.83657043 250.23230598 7.625 250.21875 C6.07852942 250.22144727 4.5320605 250.22533165 2.9855957 250.23034668 C-0.24902559 250.23623075 -3.48320382 250.22771455 -6.71777344 250.20898438 C-10.85386933 250.18619485 -14.9889269 250.19932388 -19.12498474 250.22327423 C-22.31644444 250.23776213 -25.50765994 250.23311266 -28.6991272 250.22276306 C-30.22368494 250.22010401 -31.74826521 250.22333655 -33.27279663 250.23268127 C-35.40771801 250.24289712 -37.54098258 250.22727939 -39.67578125 250.20507812 C-40.88790283 250.20189575 -42.10002441 250.19871338 -43.34887695 250.19543457 C-48.56507031 249.40184844 -51.4013485 246.99646793 -55.03135681 243.30206299 C-57.63926557 237.61025413 -57.23150682 232.04115117 -57.18579102 225.85449219 C-57.18961721 224.44127328 -57.19523882 223.02805826 -57.20251465 221.61485291 C-57.21444465 218.57824311 -57.21399183 215.54197923 -57.20392036 212.50536346 C-57.18831955 207.69650408 -57.20206659 202.88799766 -57.21995544 198.0791626 C-57.25075185 188.73275812 -57.25227842 179.38646201 -57.25030518 170.04001617 C-57.24891187 158.15800947 -57.25938238 146.27608687 -57.2988829 134.39414144 C-57.31375572 129.62160547 -57.31359148 124.84938416 -57.30140507 120.07684374 C-57.29666822 117.09685851 -57.30425409 114.11699174 -57.31494904 111.13702583 C-57.31847194 109.11365636 -57.3071301 107.09027774 -57.29521179 105.06694031 C-57.35135958 94.88741385 -58.46527812 85.38201977 -65.6875 77.6875 C-71.42120437 72.30573657 -78.8664314 69.67590319 -86.6875 69.3125 C-95.06497102 69.7178615 -102.79846545 72.64107477 -108.6875 78.6875 C-115.50124338 88.20593541 -115.97960043 97.33158273 -115.94287109 108.69750977 C-115.94562413 110.11736247 -115.94930593 111.53721364 -115.95384216 112.95706177 C-115.96192688 116.00393826 -115.96412957 119.05074149 -115.96189499 122.09762764 C-115.95905289 126.91800516 -115.97344614 131.7382372 -115.99087524 136.55857849 C-116.03782018 150.26193073 -116.06184833 163.96527204 -116.06835938 177.66870117 C-116.07211111 185.24517397 -116.09014538 192.8214811 -116.12345374 200.39788288 C-116.14365064 205.18745204 -116.14604715 209.97659346 -116.13517356 214.76618779 C-116.13256392 217.74712895 -116.14658182 220.7278216 -116.16525459 223.70869827 C-116.17057018 225.08813635 -116.16909052 226.46762038 -116.16021919 227.84704018 C-116.08243929 241.00460956 -116.08243929 241.00460956 -120.6875 245.6875 C-125.04994203 249.31929091 -128.05377976 250.19208681 -133.68334961 250.22094727 C-134.35573166 250.22956284 -135.02811371 250.23817841 -135.72087097 250.24705505 C-137.92759497 250.26962404 -140.1330395 250.26299369 -142.33984375 250.25390625 C-143.88392002 250.25914618 -145.42799309 250.26542401 -146.97206116 250.27268982 C-150.20247498 250.2830774 -153.43244787 250.27855701 -156.6628418 250.26391602 C-160.79002855 250.24673592 -164.91582203 250.27022066 -169.04285336 250.30540562 C-172.23007829 250.32743272 -175.4169726 250.32592538 -178.60424995 250.3176403 C-180.12520437 250.31682357 -181.64618373 250.32363374 -183.16706657 250.33841133 C-196.49590469 250.44807216 -196.49590469 250.44807216 -200.98657227 247.52319336 C-206.67579459 241.55010131 -207.12606082 236.39862366 -207.08190918 228.52210999 C-207.08800028 227.50103431 -207.09409139 226.47995863 -207.10036707 225.42794126 C-207.11701053 222.00791861 -207.11221922 218.58826773 -207.10742188 215.16821289 C-207.11476135 212.7156587 -207.12334723 210.26310797 -207.13308716 207.81056213 C-207.153014 201.84125359 -207.15868315 195.87209109 -207.15689927 189.90276224 C-207.15559079 185.05026434 -207.15940016 180.1977967 -207.16682434 175.34530449 C-207.16892357 173.94667719 -207.17102117 172.54804989 -207.17311716 171.14942259 C-207.17416069 170.45325503 -207.17520422 169.75708748 -207.17627937 169.03982394 C-207.19517363 155.87923005 -207.19413391 142.71869192 -207.18731004 129.55809008 C-207.18173389 117.52244071 -207.20256441 105.48700415 -207.23567051 93.45140452 C-207.26941474 81.08769675 -207.28457503 68.72409092 -207.27995348 56.36033624 C-207.27770968 49.42121197 -207.28293877 42.48228444 -207.30784607 35.54319954 C-207.33106649 29.01863941 -207.32826764 22.49444841 -207.30791855 15.96985435 C-207.30450168 13.57491335 -207.30962652 11.1799427 -207.32390213 8.78504181 C-207.34204354 5.51613258 -207.32938188 2.24873669 -207.30895996 -1.02012634 C-207.32147781 -1.96838081 -207.33399566 -2.91663527 -207.34689283 -3.89362472 C-207.26092359 -10.30989992 -205.93465521 -13.46992598 -201.6875 -18.3125 C-197.80201257 -21.42668187 -194.79535639 -21.69088127 -189.88110352 -21.70068359 C-189.21701477 -21.70594055 -188.55292603 -21.71119751 -187.86871338 -21.71661377 C-185.68436816 -21.72976345 -183.50075825 -21.72109322 -181.31640625 -21.7109375 C-179.79092774 -21.71295994 -178.26545018 -21.71587279 -176.73997498 -21.71963501 C-173.54652683 -21.72405173 -170.35333088 -21.71764943 -167.15991211 -21.70361328 C-163.07662872 -21.68653607 -158.99393759 -21.69635703 -154.910676 -21.71433067 C-151.76128216 -21.7251987 -148.61202747 -21.72170815 -145.46262932 -21.7139473 C-143.95760973 -21.71195286 -142.4525773 -21.71437787 -140.94757271 -21.72138596 C-138.83914113 -21.72904895 -136.73165278 -21.71732956 -134.62329102 -21.70068359 C-133.42591812 -21.69829681 -132.22854523 -21.69591003 -130.99488831 -21.69345093 C-126.0644052 -21.12554902 -122.79521817 -19.51252802 -119.4375 -15.875 C-117.96650518 -13.7210433 -116.81904471 -11.65003314 -115.6875 -9.3125 C-114.82511719 -9.75980469 -113.96273437 -10.20710937 -113.07421875 -10.66796875 C-105.80697478 -14.31220206 -98.62859546 -17.14196851 -90.75 -19.1875 C-89.97035889 -19.39012451 -89.19071777 -19.59274902 -88.38745117 -19.80151367 C-57.40591015 -27.45523268 -24.87548452 -19.51018394 0 0 Z " fill="#D6E8FF" transform="translate(402.6875,201.3125)"/>
<path d="M0 0 C1.47298946 -0.00269889 2.94597717 -0.00658461 4.41896057 -0.01159668 C7.49798637 -0.01747504 10.5765462 -0.00898453 13.65551758 0.00976562 C17.58402153 0.03253485 21.51143097 0.0194356 25.43989468 -0.00452423 C28.47960003 -0.01904502 31.51905005 -0.0143474 34.5587635 -0.00401306 C36.00630895 -0.00136201 37.45387827 -0.00455793 38.9013958 -0.01393127 C55.11404846 -0.09588296 55.11404846 -0.09588296 59.94140625 4.53125 C64.01465737 10.35672595 64.51594735 14.72409092 64.44934082 21.73423767 C64.45558078 22.7472951 64.46182075 23.76035254 64.4682498 24.80410868 C64.48417622 28.1911773 64.47157637 31.57752593 64.45898438 34.96459961 C64.46440565 37.39597493 64.47152834 39.82734696 64.48022461 42.25871277 C64.49656763 48.17276206 64.49417946 54.08662509 64.48257405 60.00066917 C64.47353051 64.80880313 64.47231969 69.6168802 64.47666931 74.42502022 C64.47728224 75.11005159 64.47789518 75.79508297 64.47852668 76.50087287 C64.47980562 77.8926323 64.48110248 79.28439171 64.48241705 80.6761511 C64.49381668 93.71949176 64.48071931 106.76271988 64.45921558 119.80604208 C64.44134913 130.9891593 64.4444461 142.1721104 64.46289062 153.35522461 C64.48431519 166.35119805 64.49271389 179.34707287 64.48044157 192.34306151 C64.47916742 193.72992899 64.47790993 195.1167965 64.47666931 196.50366402 C64.47605221 197.18597275 64.47543511 197.86828149 64.47479931 198.57126625 C64.47135085 203.37112748 64.47716392 208.17092599 64.48658752 212.97077751 C64.49900252 219.43623553 64.49011474 225.90145401 64.4670105 232.36688423 C64.4617247 234.73882146 64.46323493 237.1107851 64.47206116 239.48271179 C64.48300487 242.72258931 64.46926588 245.96146486 64.44934082 249.20127869 C64.45826371 250.13815629 64.46718659 251.0750339 64.47637987 252.04030174 C64.40618003 257.93231375 63.45570909 262.68127701 59.94140625 267.53125 C53.40164115 273.05693155 44.84919184 272.11494598 36.75 272.0625 C35.27604416 272.06519942 33.80209006 272.06908558 32.32814026 272.07409668 C29.2508943 272.07996883 26.17411519 272.07150227 23.09692383 272.05273438 C19.1672301 272.02992521 15.23862819 272.04309363 11.30897427 272.06702423 C8.26931129 272.08152749 5.22990421 272.07685605 2.19023323 272.06651306 C0.74186127 272.06385928 -0.70653449 272.06706774 -2.15487862 272.07643127 C-16.7990063 272.15036096 -16.7990063 272.15036096 -22.05859375 267.53125 C-26.1346656 261.66726729 -26.6329383 256.17413665 -26.56652832 249.20127869 C-26.57588826 247.67935255 -26.57588826 247.67935255 -26.5854373 246.12668043 C-26.6013414 242.74038306 -26.58877271 239.35480807 -26.57617188 235.96850586 C-26.58159408 233.53536053 -26.58871729 231.10221848 -26.59741211 228.66908264 C-26.61374439 222.75483752 -26.61137305 216.84077876 -26.59976155 210.92653888 C-26.59071468 206.11889699 -26.58950862 201.31131198 -26.59385681 196.50366402 C-26.59446974 195.81847941 -26.59508268 195.1332948 -26.59571418 194.42734702 C-26.59699313 193.0352634 -26.59828998 191.64317979 -26.59960455 190.2510962 C-26.611 177.20968896 -26.59791249 164.16839435 -26.57640308 151.12700558 C-26.558529 139.94358213 -26.5616407 128.76032476 -26.58007812 117.5769043 C-26.60149627 104.57946829 -26.60990567 91.58213086 -26.59762907 78.58467966 C-26.59635491 77.19812653 -26.59509743 75.81157338 -26.59385681 74.42502022 C-26.59323971 73.74286576 -26.59262261 73.0607113 -26.59198681 72.35788549 C-26.58853703 67.55704192 -26.59435411 62.75626103 -26.60377502 57.95542717 C-26.61618094 51.49160049 -26.60731707 45.02801354 -26.584198 38.56421471 C-26.57890831 36.1918566 -26.58042907 33.81947209 -26.58924866 31.44712448 C-26.60017675 28.2091389 -26.58647241 24.97215914 -26.56652832 21.73423767 C-26.57545121 20.79512934 -26.58437409 19.85602101 -26.59356737 18.88845485 C-26.52224994 12.92047086 -25.53840184 9.42124675 -22.05859375 4.53125 C-15.64947506 -0.95479962 -8.0630239 -0.05212739 0 0 Z " fill="#ECF4FF" transform="translate(102.05859375,179.46875)"/>
<path d="M0 0 C0 89.43 0 178.86 0 271 C-50 271 -50 271 -57 266 C-60.64898854 260.89299187 -60.42828056 255.87715717 -60.39440918 249.83460999 C-60.40050028 248.81353431 -60.40659139 247.79245863 -60.41286707 246.74044126 C-60.42951053 243.32041861 -60.42471922 239.90076773 -60.41992188 236.48071289 C-60.42726135 234.0281587 -60.43584723 231.57560797 -60.44558716 229.12306213 C-60.465514 223.15375359 -60.47118315 217.18459109 -60.46939927 211.21526224 C-60.46809079 206.36276434 -60.47190016 201.5102967 -60.47932434 196.65780449 C-60.48142357 195.25917719 -60.48352117 193.86054989 -60.48561716 192.46192259 C-60.48666069 191.76575503 -60.48770422 191.06958748 -60.48877937 190.35232394 C-60.50767363 177.19173005 -60.50663391 164.03119192 -60.49981004 150.87059008 C-60.49423389 138.83494071 -60.51506441 126.79950415 -60.54817051 114.76390452 C-60.58191474 102.40019675 -60.59707503 90.03659092 -60.59245348 77.67283624 C-60.59020968 70.73371197 -60.59543877 63.79478444 -60.62034607 56.85569954 C-60.64356649 50.33113941 -60.64076764 43.80694841 -60.62041855 37.28235435 C-60.61700168 34.88741335 -60.62212652 32.4924427 -60.63640213 30.09754181 C-60.65454354 26.82863258 -60.64188188 23.56123669 -60.62145996 20.29237366 C-60.63397781 19.34411919 -60.64649566 18.39586473 -60.65939283 17.41887528 C-60.58805164 12.09435781 -59.82462085 8.717797 -56.56018305 4.46237749 C-41.89855004 -9.2801395 -17.57378637 0 0 0 Z " fill="#ECF4FF" transform="translate(256,180)"/>
<path d="M0 0 C8.72983671 7.56386537 15.85383215 17.20036523 17.28125 28.9765625 C18.23892175 43.23903101 15.26911481 54.69198688 6.60546875 66.203125 C-0.86831447 74.49310296 -13.00936481 80.28630359 -24.078125 81.27734375 C-37.08087636 81.32228413 -46.2231135 78.77848322 -56.71875 70.9765625 C-57.36714844 70.49832031 -58.01554687 70.02007812 -58.68359375 69.52734375 C-66.64281406 62.65101056 -72.16000363 50.2311056 -72.95703125 39.8828125 C-73.27073215 25.48559206 -69.56721576 14.26267505 -59.6171875 3.7578125 C-43.09094883 -11.89247712 -18.38974395 -14.03113581 0 0 Z " fill="#EBF4FF" transform="translate(148.71875,69.0234375)"/>
</svg>
