<?xml version="1.0" encoding="UTF-8"?>
<svg version="1.1" xmlns="http://www.w3.org/2000/svg" width="512" height="512">
<path d="M0 0 C3.36314597 2.00712141 6.33284414 4.24061571 9.33203125 6.75390625 C14.65603767 11.05100677 20.25809527 14.54201238 26.1875 17.9375 C27.23881104 18.54231201 28.29012207 19.14712402 29.37329102 19.77026367 C68.7990636 42.18954349 112.52601445 53.55591176 157.7578125 55.19921875 C168.70648263 55.606142 175.24303389 57.11311875 183.20703125 64.92578125 C187.47725022 70.66625283 188.19047894 75.92981992 188.14440918 82.86079407 C188.15050028 83.72951604 188.15659139 84.598238 188.16286707 85.49328488 C188.17945954 88.391898 188.17472659 91.29007002 188.16992188 94.1887207 C188.17726442 96.27202815 188.1858512 98.35533152 188.19558716 100.43862915 C188.21779346 106.08956837 188.22073423 111.74036173 188.21883965 117.39133859 C188.21871989 122.11288406 188.22728616 126.83439868 188.23561716 131.55593556 C188.25484849 142.69803724 188.2577362 153.840064 188.25097656 164.98217773 C188.24433747 176.46626237 188.26719567 187.95002567 188.30429029 199.43404514 C188.33500716 209.30264488 188.3463451 219.17114137 188.34245348 229.03978795 C188.34038786 234.92993199 188.34583646 240.81982603 188.37034607 246.7099247 C188.3926429 252.25127924 188.39071051 257.79211226 188.37041855 263.33346939 C188.36701362 265.36271382 188.37207518 267.39199355 188.38640213 269.42119026 C188.51573039 289.1027235 188.51573039 289.1027235 182.75 297 C182.11993168 297.89275619 182.11993168 297.89275619 181.4771347 298.80354786 C180.27363114 300.43545259 178.98059803 301.92969124 177.625 303.4375 C177.0985791 304.03385254 176.5721582 304.63020508 176.02978516 305.24462891 C169.63155503 312.34323148 162.86132352 319.09963296 156.125 325.875 C155.54876892 326.45667938 154.97253784 327.03835876 154.37884521 327.63766479 C147.94569528 334.11592238 141.44806411 340.26845839 134.2890625 345.95507812 C131.83629243 347.9305014 129.49663766 349.98639635 127.1640625 352.1015625 C122.67705958 356.13009778 117.96368542 359.78067015 113.125 363.375 C112.25037109 364.02637939 111.37574219 364.67775879 110.47460938 365.34887695 C79.10832135 388.5552263 44.54320049 407.26331079 7.6875 420.125 C6.60629883 420.51582764 5.52509766 420.90665527 4.41113281 421.30932617 C-8.5011451 425.6459658 -19.51323705 424.7055695 -32.1875 420.125 C-33.34773682 419.72079834 -34.50797363 419.31659668 -35.70336914 418.90014648 C-47.1395871 414.83679699 -58.26457107 410.15066997 -69.25 405 C-70.11173828 404.59668457 -70.97347656 404.19336914 -71.86132812 403.77783203 C-89.12274329 395.61124717 -105.58087012 385.91242974 -121.25 375 C-121.78753906 374.62697754 -122.32507813 374.25395508 -122.87890625 373.86962891 C-136.99542793 364.04192518 -150.33489606 353.35389464 -163.25 342 C-164.15363281 341.20980469 -165.05726563 340.41960937 -165.98828125 339.60546875 C-172.66390813 333.62542094 -179.04016301 327.33723887 -185.39993286 321.02529907 C-186.40758155 320.02569029 -187.41670601 319.02756645 -188.42745972 318.03109741 C-211.96532721 294.79078604 -211.96532721 294.79078604 -212.38422108 283.32670307 C-212.39366045 281.75341303 -212.39752711 280.18008407 -212.39717102 278.60676575 C-212.40268605 277.30669265 -212.40268605 277.30669265 -212.4083125 275.98035544 C-212.41935987 273.06477855 -212.42319497 270.14923728 -212.42700195 267.23364258 C-212.43326582 265.14768358 -212.43991255 263.0617257 -212.44691467 260.97576904 C-212.46433172 255.2999746 -212.47487843 249.62418858 -212.4831202 243.94837403 C-212.48826902 240.40295086 -212.49434482 236.85753031 -212.50063133 233.31210899 C-212.51968565 222.22118686 -212.5339161 211.13027139 -212.5422433 200.03933603 C-212.55201665 187.23336327 -212.57833784 174.42756333 -212.61874419 161.62165147 C-212.64889713 151.72600495 -212.66371141 141.83040798 -212.66702431 131.9347164 C-212.66937577 126.02335841 -212.67834889 120.11218498 -212.70348549 114.20087624 C-212.72675659 108.63832369 -212.73100316 103.07607736 -212.72072411 97.51348877 C-212.7202284 95.47372609 -212.726559 93.43394839 -212.74028015 91.3942318 C-212.75798977 88.6051724 -212.75089737 85.81721301 -212.73774719 83.02815247 C-212.75420106 81.82301812 -212.75420106 81.82301812 -212.77098733 80.59353763 C-212.69164509 73.60288588 -210.43020595 68.524449 -205.875 63.25 C-199.98061552 58.19767045 -195.62588719 55.96092158 -187.90625 55.60546875 C-186.61082275 55.5394043 -185.31539551 55.47333984 -183.98071289 55.40527344 C-183.29155792 55.37042847 -182.60240295 55.3355835 -181.8923645 55.29968262 C-128.1488151 52.48545935 -76.98339839 37.67437998 -32.91113281 6.18212891 C-30.61000965 4.54455713 -28.27985624 2.95288949 -25.9375 1.375 C-24.95330078 0.70597656 -24.95330078 0.70597656 -23.94921875 0.0234375 C-17.2504246 -4.01123852 -6.85319159 -3.24682209 0 0 Z M-21.875 19.75 C-64.738061 52.63022627 -120.99379811 70.49412053 -174.765625 72.19921875 C-176.12651245 72.24622925 -176.12651245 72.24622925 -177.51489258 72.29418945 C-179.2486397 72.34661206 -180.98304545 72.38137173 -182.7175293 72.39526367 C-187.80415653 72.53607902 -190.56662377 73.1508358 -194.25 77 C-195.81721757 80.13443513 -195.40916024 83.48244922 -195.4173584 86.92457581 C-195.42315178 87.75297924 -195.42894517 88.58138268 -195.43491411 89.43488926 C-195.4530349 92.22685079 -195.46386326 95.01879202 -195.47460938 97.81079102 C-195.48578063 99.80631191 -195.49729382 101.80183093 -195.50912476 103.79734802 C-195.54573607 110.36617407 -195.57091094 116.93501953 -195.59375 123.50390625 C-195.59769587 124.6210472 -195.60164173 125.73818815 -195.60570717 126.88918185 C-195.64213231 137.42371983 -195.67358087 147.95826445 -195.69481659 158.49284458 C-195.72238722 171.97167288 -195.77313693 185.44997466 -195.85529089 198.92858368 C-195.91108393 208.40299102 -195.94005307 217.87725553 -195.9492898 227.35182136 C-195.95554779 233.01134357 -195.97367437 238.67024893 -196.02067566 244.32959175 C-196.06437515 249.65757044 -196.07482001 254.9845957 -196.06004715 260.31272316 C-196.06037556 262.26501724 -196.07263303 264.21735254 -196.09789658 266.16948318 C-196.58706775 278.05206659 -196.58706775 278.05206659 -191.84411621 288.56163025 C-190.68144416 289.74361545 -189.48727599 290.89634994 -188.25 292 C-187.48558594 292.90105469 -186.72117187 293.80210937 -185.93359375 294.73046875 C-180.00854813 301.21195344 -173.8829714 307.49294292 -167.69851685 313.72671509 C-166.29038322 315.14677476 -164.88621984 316.57076788 -163.48217773 317.99487305 C-157.38156853 324.10311415 -150.98748427 329.61122703 -144.25 335 C-143.14837384 335.93501758 -142.05202586 336.87635133 -140.96484375 337.828125 C-132.16234008 345.50400725 -122.82364015 352.3200691 -113.25 359 C-112.27909424 359.67893311 -112.27909424 359.67893311 -111.28857422 360.37158203 C-100.97074552 367.53892869 -90.21181596 373.8734936 -79.25 380 C-78.50298828 380.4228125 -77.75597656 380.845625 -76.98632812 381.28125 C-62.95870355 389.17718643 -48.27132154 395.25634852 -33.25 401 C-31.85563721 401.53560547 -31.85563721 401.53560547 -30.43310547 402.08203125 C-28.00613836 402.9996268 -25.57077497 403.88396889 -23.125 404.75 C-22.10684204 405.12850098 -22.10684204 405.12850098 -21.06811523 405.51464844 C-12.67520693 408.3420429 -4.95774933 405.93538115 3.125 403.1875 C4.01493652 402.88690674 4.90487305 402.58631348 5.82177734 402.27661133 C60.81795046 383.06987861 107.89747615 348.61083238 148.96832275 308.01184082 C149.97119421 307.02195734 150.97644006 306.03447227 151.98431396 305.04968262 C153.42991005 303.6347975 154.86436159 302.209367 156.296875 300.78125 C157.13057617 299.95689453 157.96427734 299.13253906 158.82324219 298.28320312 C159.80133702 297.19104377 160.77650568 296.096262 161.75 295 C162.48178498 294.26026947 163.21356997 293.52053894 163.96753025 292.75839233 C172.19155332 283.46348592 171.99741542 274.9727696 171.8034668 262.97460938 C171.8042034 260.96949769 171.80888423 258.96438419 171.81718445 256.95928955 C171.82825492 251.54598679 171.78378463 246.13444157 171.72840858 240.72146416 C171.67938452 235.04862323 171.68015936 229.37577825 171.67500305 223.70275879 C171.65938455 214.18694916 171.61070819 204.67179394 171.53881836 195.15625 C171.43749682 181.73031282 171.4000732 168.30472798 171.37336481 154.87846661 C171.35233812 145.57544924 171.31533372 136.27248482 171.27580667 126.96953011 C171.2663952 124.71433284 171.25751918 122.45913327 171.24917197 120.20393181 C171.22509935 113.78210086 171.19120173 107.36048582 171.14085579 100.93880463 C171.1270056 98.99252667 171.1164966 97.04622171 171.10953522 95.09990692 C171.09934463 92.44807047 171.07688059 89.79662129 171.05107117 87.14489746 C171.05075777 86.37098081 171.05044438 85.59706416 171.05012149 84.79969549 C171.00015894 81.07217288 170.91730323 78.11976874 168.75 75 C165.45799469 72.66672232 162.22598841 72.67169741 158.2734375 72.5078125 C156.97607666 72.4449707 155.67871582 72.38212891 154.34204102 72.31738281 C153.65490021 72.28664673 152.9677594 72.25591064 152.25979614 72.22424316 C112.52168569 70.37688372 73.56308069 61.57318324 37.75 44 C36.88777832 43.57847656 36.02555664 43.15695313 35.13720703 42.72265625 C21.7151435 36.09156164 8.33161481 28.79647274 -3.32568359 19.31103516 C-6.36009671 16.85748103 -8.48097779 15.16743268 -12.3359375 14.328125 C-16.25084684 15.23075825 -18.82371486 17.27072644 -21.875 19.75 Z " fill="#55050C" transform="translate(268.25,45)"/>
<path d="M0 0 C3.1452267 1.4574723 5.90815161 3.33795142 8.75 5.3125 C10.43853392 6.42624198 12.1300336 7.53549845 13.82421875 8.640625 C15.11465088 9.48657227 15.11465088 9.48657227 16.43115234 10.34960938 C54.96620201 35.10696879 102.56402297 49.47498107 148.17578125 52.18896484 C149.23152344 52.25422363 150.28726562 52.31948242 151.375 52.38671875 C152.33148438 52.43401123 153.28796875 52.48130371 154.2734375 52.5300293 C157.4387935 53.07563373 159.40202893 54.13557708 162 56 C163.4816699 58.96333981 163.1660679 61.98383911 163.18081665 65.23449707 C163.19162343 66.36578797 163.19162343 66.36578797 163.20264852 67.51993322 C163.22546659 70.06079973 163.24097121 72.60165642 163.25634766 75.14257812 C163.27079205 76.95913942 163.28554963 78.77569825 163.30059814 80.59225464 C163.43100773 97.19457549 163.4967654 113.79757445 163.54844093 130.4003067 C163.58733228 142.67217875 163.6556445 154.94313161 163.76298869 167.21460009 C163.83591696 175.84316049 163.87428802 184.47147002 163.88746679 193.10032606 C163.89632224 198.2531715 163.92049493 203.40488129 163.98213577 208.55738831 C164.03953073 213.4103487 164.05401341 218.26159232 164.03626251 223.11484146 C164.0371384 224.89098414 164.05330167 226.66719893 164.08630753 228.44303513 C164.35154162 243.5017817 164.35154162 243.5017817 158.61679077 249.93249512 C157.10497456 251.31849891 155.56868955 252.67870977 154 254 C153.01066953 255.06722164 152.03866654 256.15107425 151.09375 257.2578125 C139.69687345 269.856167 127.3400751 281.47825063 114 292 C112.88636345 292.91465243 111.77449251 293.83145733 110.6640625 294.75 C80.33683179 319.68736879 45.1290823 339.53894981 8.3125 353.125 C7.51110596 353.43284424 6.70971191 353.74068848 5.8840332 354.05786133 C-4.02978037 357.56301735 -11.82797446 354.6942489 -21.3125 351 C-22.36211914 350.59700684 -23.41173828 350.19401367 -24.49316406 349.77880859 C-56.55771708 337.31464685 -86.09440099 320.46981772 -113 299 C-113.928125 298.27296875 -114.85625 297.5459375 -115.8125 296.796875 C-118.23066435 294.89024541 -120.62060895 292.95477304 -123 291 C-123.96679688 290.20722656 -124.93359375 289.41445313 -125.9296875 288.59765625 C-138.7787329 277.94788932 -151.71188717 266.59778606 -162.625 253.9375 C-163.15351563 253.32777344 -163.68203125 252.71804688 -164.2265625 252.08984375 C-164.81179687 251.40019531 -165.39703125 250.71054687 -166 250 C-167.27293112 248.6902933 -167.27293112 248.6902933 -168.57157803 247.35412788 C-171.44465101 243.87956799 -171.70216309 240.64109435 -171.62818909 236.24411011 C-171.63528347 235.48226508 -171.64237786 234.72042006 -171.64968723 233.93548882 C-171.66723554 231.39250853 -171.64918003 228.85106317 -171.63110352 226.30810547 C-171.63624348 224.48121445 -171.64352535 222.65432839 -171.65278625 220.82745361 C-171.67129596 215.87296597 -171.65836539 210.91901666 -171.63869596 205.96455145 C-171.62230963 200.78008238 -171.6311221 195.59564739 -171.63621521 190.41116333 C-171.64073537 181.70712686 -171.62486908 173.00330535 -171.59692383 164.29931641 C-171.56485221 154.23239508 -171.56489572 144.16586102 -171.5821386 134.09891212 C-171.59799269 124.41646898 -171.59127862 114.73416801 -171.57420158 105.05173111 C-171.56732418 100.92977241 -171.56837054 96.80792743 -171.57574654 92.68597031 C-171.58339825 87.83492079 -171.57131976 82.98431306 -171.54389763 78.13333893 C-171.53700176 76.35153897 -171.53692866 74.56969784 -171.54411316 72.78789902 C-171.55278053 70.35874456 -171.53689963 67.93096212 -171.5146637 65.50192261 C-171.52290446 64.79395031 -171.53114523 64.08597801 -171.53963572 63.356552 C-171.48232815 59.9735277 -171.22247569 58.28070903 -169.09283352 55.59362984 C-165.73089611 53.03361552 -163.41523385 52.75980629 -159.234375 52.38671875 C-158.04537598 52.27545654 -156.85637695 52.16419434 -155.63134766 52.04956055 C-154.35050293 51.93008057 -153.0696582 51.81060059 -151.75 51.6875 C-106.1003312 47.15278324 -58.93911306 34.1274314 -20.66796875 8.06640625 C-19.53693726 7.30565796 -19.53693726 7.30565796 -18.38305664 6.52954102 C-16.92064592 5.5389471 -15.46962344 4.53124017 -14.03295898 3.50366211 C-9.40410252 0.35246832 -5.61257609 -1.38464176 0 0 Z M-9.5 21.875 C-49.00288419 47.38727937 -93.85914343 61.92970198 -140.26953125 68.14453125 C-141.61059393 68.32641411 -142.95161795 68.50858226 -144.29260254 68.69104004 C-147.52803508 69.13015006 -150.76382278 69.56641843 -154 70 C-154.1635614 91.6530709 -154.28698059 113.30603987 -154.3626852 134.95960331 C-154.39877144 145.01388773 -154.44796486 155.0677882 -154.52807617 165.12182617 C-154.59787255 173.88551241 -154.64301372 182.64892057 -154.65861946 191.41287702 C-154.66774119 196.0529917 -154.68915943 200.69231091 -154.7401104 205.33217049 C-154.78770069 209.70147766 -154.80226582 214.06966343 -154.79175377 218.43920517 C-154.79367618 220.04082145 -154.80755677 221.64247604 -154.83443832 223.24386787 C-155.21064911 231.70737915 -155.21064911 231.70737915 -152.45741463 239.47009087 C-150.72754364 241.2155272 -149.01271569 242.60168018 -147 244 C-145.81480123 245.31688753 -144.64336369 246.64663074 -143.5 248 C-138.46218538 253.82322001 -133.03668622 259.05955621 -127.19921875 264.07421875 C-125.65688828 265.42478521 -124.140525 266.8053124 -122.64453125 268.20703125 C-115.20305307 275.17567723 -107.27396766 281.32870421 -99.109375 287.42138672 C-97.16767266 288.8745172 -95.23876619 290.3429173 -93.3125 291.81640625 C-68.44760399 310.66802219 -40.40508297 325.61563851 -11 336 C-10.29286865 336.26965576 -9.5857373 336.53931152 -8.85717773 336.81713867 C-2.9221667 338.76785836 1.27143049 337.13642594 6.8125 334.9375 C7.75246826 334.57897949 8.69243652 334.22045898 9.66088867 333.85107422 C28.17049412 326.58844152 46.23073129 317.69911099 63 307 C63.71913574 306.54302734 64.43827148 306.08605469 65.17919922 305.61523438 C76.57050688 298.32203415 87.39406842 290.38771585 98 282 C99.52753906 280.79537109 99.52753906 280.79537109 101.0859375 279.56640625 C107.46644094 274.43823658 113.50044468 268.96819546 119.48828125 263.39404297 C120.96767861 262.02980542 122.46804428 260.68841834 123.96875 259.34765625 C125.92186898 257.59755885 127.84363112 255.81171275 129.72932434 253.98916626 C131.84120662 251.97971071 133.96108362 250.31832374 136.39115906 248.71444702 C141.92221675 244.62389251 145.35242487 240.24103102 146.72104263 233.3912735 C147.96691337 222.95898152 147.53421942 212.33836487 147.31812119 201.85832644 C147.23628771 197.21548091 147.22917403 192.57250208 147.21379089 187.92904663 C147.17354789 179.15595576 147.06709922 170.38499649 146.93624753 161.61284006 C146.79042436 151.61784494 146.71933621 141.62274247 146.65420687 131.62694669 C146.5186941 111.08344599 146.29036171 90.54185781 146 70 C145.03189896 69.86031799 144.06379791 69.72063599 143.06636047 69.57672119 C139.41802206 69.0495995 135.77020065 68.51896914 132.12251282 67.98736572 C130.55430919 67.7593006 128.9859733 67.53214268 127.41749573 67.30596924 C82.16154783 60.77669737 37.52498455 46.45125607 -0.55078125 20.546875 C-4.58352549 17.99987864 -5.781784 19.38471336 -9.5 21.875 Z " fill="#55050C" transform="translate(260,80)"/>
<path d="M0 0 C2.67737929 0.00850502 5.35261581 -0.02031221 8.02978516 -0.05200195 C23.51160482 -0.11645859 36.22946938 2.80749128 48.06884766 13.47729492 C58.69278513 24.60521425 62.18887725 37.60592086 62.01025391 52.61010742 C62.00742401 53.52819183 62.00459412 54.44627625 62.00167847 55.3921814 C61.99060539 58.28527628 61.96552608 61.17804578 61.93994141 64.07104492 C61.92989493 66.04890499 61.92077202 68.02676998 61.91259766 70.00463867 C61.89070845 74.81856352 61.85626973 79.63224932 61.81494141 84.44604492 C62.82814453 84.41124023 63.84134766 84.37643555 64.88525391 84.34057617 C66.2367997 84.31241897 67.58836359 84.28512089 68.93994141 84.25854492 C69.60509766 84.2334082 70.27025391 84.20827148 70.95556641 84.18237305 C76.37004086 84.10274842 80.45682745 85.24476515 84.45947266 88.98120117 C88.66283899 94.47791099 88.97160299 97.76772239 88.99194336 104.57397461 C88.99851456 105.52047882 89.00508575 106.46698303 89.01185608 107.44216919 C89.03161597 110.58408685 89.04325804 113.72595664 89.05322266 116.86791992 C89.05729818 117.93978798 89.06137371 119.01165604 89.06557274 120.11600494 C89.08644555 125.78981841 89.10074169 131.4636076 89.11010742 137.13745117 C89.12117079 142.99981908 89.15556668 148.8618073 89.19527912 154.72404099 C89.22141931 159.22964181 89.229797 163.73515185 89.2333889 168.24082184 C89.23826203 170.40177218 89.24989658 172.56271828 89.2684269 174.72359467 C89.29276124 177.74954832 89.29186345 180.77451566 89.28491211 183.80053711 C89.3041272 185.13802505 89.3041272 185.13802505 89.32373047 186.50253296 C89.27787979 191.98273673 88.46561886 195.09933304 84.81494141 199.44604492 C80.26369745 203.45547412 77.9384234 204.56976104 71.92022705 204.59321594 C70.66402557 204.60037125 69.4078241 204.60752655 68.11355591 204.61489868 C66.71356226 204.61773909 65.31356834 204.6204508 63.91357422 204.62304688 C62.44519896 204.62931056 60.97682529 204.63595728 59.50845337 204.64295959 C55.51243413 204.66037917 51.51642687 204.67092417 47.52037907 204.67916512 C45.0240896 204.68431375 42.52780386 204.69038957 40.03151703 204.69667625 C32.22216702 204.71573187 24.41282648 204.72996165 16.60345769 204.73828822 C7.58726614 204.74806 -1.42867986 204.77437629 -10.44478488 204.81478912 C-17.41216705 204.84494765 -24.37947884 204.85975688 -31.34692502 204.86306924 C-35.50886753 204.86542023 -39.67054783 204.87438658 -43.83242035 204.89953041 C-47.74933567 204.92281145 -51.66581617 204.92704446 -55.58278275 204.91676903 C-57.01868003 204.91627354 -58.4545987 204.92259786 -59.89043045 204.93632507 C-61.85434375 204.95404698 -63.81844589 204.94455157 -65.78240967 204.93379211 C-66.88043285 204.93618047 -67.97845604 204.93856882 -69.10975266 204.94102955 C-74.1084117 204.1364724 -77.21064146 201.55214004 -80.49755859 197.82104492 C-83.65022966 193.38395231 -83.34624465 189.6104003 -83.36206055 184.31811523 C-83.36863174 183.37161102 -83.37520294 182.42510681 -83.38197327 181.44992065 C-83.40173316 178.30800299 -83.41337523 175.1661332 -83.42333984 172.02416992 C-83.42741537 170.95230186 -83.4314909 169.88043381 -83.43568993 168.7760849 C-83.45656273 163.10227144 -83.47085888 157.42848225 -83.48022461 151.75463867 C-83.49128798 145.89227077 -83.52568387 140.03028255 -83.56539631 134.16804886 C-83.5915365 129.66244804 -83.59991418 125.15693799 -83.60350609 120.65126801 C-83.60837921 118.49031766 -83.62001376 116.32937157 -83.63854408 114.16849518 C-83.66287842 111.14254152 -83.66198064 108.11757418 -83.6550293 105.09155273 C-83.66783936 104.1998941 -83.68064941 103.30823547 -83.69384766 102.38955688 C-83.64798537 96.9079656 -82.83223292 93.79654672 -79.18505859 89.44604492 C-74.04843911 84.81055905 -70.21834003 84.30196681 -63.49755859 84.38354492 C-62.79566406 84.38805664 -62.09376953 84.39256836 -61.37060547 84.3972168 C-59.64205321 84.40897566 -57.91354494 84.42691039 -56.18505859 84.44604492 C-56.20076904 83.23658203 -56.21647949 82.02711914 -56.23266602 80.78100586 C-56.28747055 76.24103607 -56.32159028 71.70109478 -56.34985352 67.16088867 C-56.36482609 65.20576032 -56.38521141 63.25066489 -56.41137695 61.2956543 C-56.65385558 42.69611753 -55.13619226 26.89421105 -41.77099609 12.77416992 C-29.30147383 1.54783265 -16.01428527 -0.07751207 0 0 Z M-32.18505859 28.44604492 C-40.12010694 39.04167518 -38.87482892 50.5885183 -38.56005859 63.19604492 C-38.43630859 70.20854492 -38.31255859 77.22104492 -38.18505859 84.44604492 C-11.12505859 84.44604492 15.93494141 84.44604492 43.81494141 84.44604492 C43.93869141 77.43354492 44.06244141 70.42104492 44.18994141 63.19604492 C44.24456543 61.00818359 44.29918945 58.82032227 44.35546875 56.56616211 C44.52913746 44.64594813 44.00003966 35.81472711 36.0402832 26.33178711 C28.00502397 18.41036499 17.90449723 16.87606901 7.01025391 16.89916992 C6.31963867 16.90754883 5.62902344 16.91592773 4.91748047 16.92456055 C2.817023 16.94602365 0.71998363 16.92465253 -1.38037109 16.89916992 C-13.37561529 16.87373438 -24.16741034 18.89413491 -32.18505859 28.44604492 Z M-66.18505859 101.44604492 C-66.18505859 129.82604492 -66.18505859 158.20604492 -66.18505859 187.44604492 C-20.64505859 187.44604492 24.89494141 187.44604492 71.81494141 187.44604492 C71.81494141 159.06604492 71.81494141 130.68604492 71.81494141 101.44604492 C26.27494141 101.44604492 -19.26505859 101.44604492 -66.18505859 101.44604492 Z " fill="#EC2E17" transform="translate(253.18505859375,153.553955078125)"/>
<path d="M0 0 C3.33761045 2.15090451 4.73470933 3.20412799 6 7 C6.25853371 10.95399893 6.23137931 14.91344802 6.25 18.875 C6.270625 19.96425781 6.29125 21.05351562 6.3125 22.17578125 C6.31765625 23.22894531 6.3228125 24.28210938 6.328125 25.3671875 C6.34214355 26.80747314 6.34214355 26.80747314 6.35644531 28.27685547 C5.9303999 31.53172568 4.93250849 33.36501844 3 36 C-0.51253146 38.34168764 -1.86469356 38.49623677 -6 38 C-9.33761045 35.84909549 -10.73470933 34.79587201 -12 31 C-12.25853371 27.04600107 -12.23137931 23.08655198 -12.25 19.125 C-12.270625 18.03574219 -12.29125 16.94648438 -12.3125 15.82421875 C-12.31765625 14.77105469 -12.3228125 13.71789062 -12.328125 12.6328125 C-12.3374707 11.67262207 -12.34681641 10.71243164 -12.35644531 9.72314453 C-11.9303999 6.46827432 -10.93250849 4.63498156 -9 2 C-5.48746854 -0.34168764 -4.13530644 -0.49623677 0 0 Z " fill="#EB2E18" transform="translate(259,279)"/>
</svg>
