<?xml version="1.0" standalone="no"?>
<!DOCTYPE svg PUBLIC "-//W3C//DTD SVG 20010904//EN"
 "http://www.w3.org/TR/2001/REC-SVG-20010904/DTD/svg10.dtd">
<svg version="1.0" xmlns="http://www.w3.org/2000/svg"
 width="444.000000pt" height="444.000000pt" viewBox="0 0 444.000000 444.000000"
 preserveAspectRatio="xMidYMid meet">

<g transform="translate(0.000000,444.000000) scale(0.100000,-0.100000)"
fill="#000000" stroke="none">
<path d="M2983 3610 c-42 -25 -55 -51 -68 -135 -10 -65 -13 -70 -35 -69 -14 1
-48 12 -76 24 -84 38 -159 8 -205 -81 l-19 -39 -291 0 c-286 0 -321 -3 -341
-34 -14 -20 -8 -56 12 -76 19 -19 33 -20 280 -20 l260 0 0 -47 c0 -62 15 -90
70 -130 70 -52 71 -53 62 -69 -5 -9 -26 -26 -48 -38 -91 -51 -108 -133 -49
-245 108 -206 171 -246 293 -185 29 14 58 24 66 21 8 -3 15 -29 18 -65 10
-103 53 -154 145 -168 l43 -6 0 -259 0 -259 -1177 2 -1178 3 -3 699 c-2 614 0
702 13 723 l15 23 345 0 c332 0 346 1 365 20 20 20 26 56 12 76 -20 31 -54 34
-384 34 -401 -1 -419 -5 -469 -102 -18 -36 -19 -73 -19 -914 l0 -877 26 -45
c48 -82 44 -82 547 -82 l437 0 0 -22 c0 -62 -34 -276 -47 -296 -20 -33 -72
-52 -138 -52 -42 0 -60 -5 -75 -20 -25 -25 -26 -62 -2 -83 17 -15 72 -17 589
-17 539 0 571 1 586 18 24 26 21 68 -5 86 -14 10 -44 16 -76 16 -68 0 -117 21
-136 58 -12 24 -46 240 -46 296 0 14 42 16 404 16 261 0 415 4 433 11 42 15
92 68 103 109 6 20 10 204 10 436 l0 402 45 6 c84 13 135 79 135 176 0 65 16
72 85 37 125 -64 183 -28 291 180 38 72 45 94 41 126 -7 51 -28 81 -87 123
-28 20 -50 42 -50 50 0 8 23 28 50 45 63 39 95 94 87 152 -3 22 -33 87 -69
151 -56 96 -70 114 -108 134 -57 28 -84 28 -148 -4 -75 -37 -86 -32 -93 48 -6
74 -25 110 -72 138 -28 17 -51 20 -177 20 -126 0 -149 -3 -177 -20z m299 -168
c9 -78 32 -120 84 -149 51 -30 100 -29 158 2 26 14 53 25 59 25 14 0 117 -170
117 -192 0 -7 -21 -26 -47 -43 -57 -36 -86 -83 -86 -139 0 -57 25 -101 83
-142 28 -20 50 -40 50 -46 0 -6 -23 -51 -52 -100 -57 -100 -48 -96 -151 -59
-47 18 -65 20 -95 12 -78 -22 -109 -64 -120 -164 l-7 -62 -115 0 -115 0 -6 68
c-7 80 -27 112 -89 145 -57 28 -85 28 -146 -3 -27 -14 -56 -25 -64 -25 -13 0
-120 173 -120 193 0 4 23 21 50 38 109 67 120 191 25 265 -20 16 -46 36 -58
45 -20 16 -20 17 32 107 29 50 57 94 62 98 6 3 38 -6 71 -21 46 -21 70 -26
101 -22 78 11 128 68 134 154 7 89 -1 84 125 81 l113 -3 7 -63z m-176 -1868
c8 -32 -3 -135 -17 -149 -7 -7 -398 -10 -1165 -10 -1331 0 -1184 -14 -1184
112 l0 73 1180 0 1180 0 6 -26z m-952 -321 c3 -21 11 -80 16 -132 6 -51 15
-112 20 -135 5 -22 10 -47 10 -53 0 -10 -56 -13 -246 -13 l-246 0 6 28 c3 15
13 79 21 142 8 63 18 134 21 158 l5 42 194 0 193 0 6 -37z"/>
<path d="M3113 3199 c-79 -15 -139 -59 -177 -129 -94 -173 25 -383 219 -384
77 0 128 17 178 63 138 124 105 359 -60 429 -62 25 -108 32 -160 21z m118
-142 c75 -50 86 -137 26 -204 -82 -89 -227 -30 -227 92 0 105 115 169 201 112z"/>
<path d="M1693 3300 c-27 -11 -39 -53 -25 -85 25 -53 112 -35 112 23 0 51 -42
80 -87 62z"/>
<path d="M1068 2919 c-141 -145 -141 -136 -1 -280 113 -116 135 -127 173 -89
37 37 25 64 -83 177 l-50 52 76 80 c83 87 93 115 57 151 -38 38 -59 27 -172
-91z"/>
<path d="M1632 3013 c-36 -31 -252 -394 -252 -423 0 -52 58 -77 98 -42 32 28
252 393 252 419 0 28 -33 63 -59 63 -10 0 -28 -8 -39 -17z"/>
<path d="M1860 3010 c-36 -36 -26 -64 57 -151 l76 -80 -44 -47 c-114 -119
-126 -145 -89 -182 38 -38 60 -27 173 89 141 142 141 135 1 280 -113 118 -135
130 -174 91z"/>
<path d="M977 2352 c-22 -24 -21 -65 1 -85 17 -15 71 -17 576 -17 365 0 564 4
577 10 13 7 19 21 19 45 0 68 30 65 -594 65 -533 0 -564 -1 -579 -18z"/>
<path d="M2330 2350 c-24 -24 -25 -48 -4 -78 23 -34 84 -28 102 10 30 64 -48
118 -98 68z"/>
<path d="M977 2032 c-22 -24 -21 -65 1 -85 17 -15 61 -17 425 -17 394 0 408 1
427 20 24 24 25 48 4 78 l-15 22 -413 0 c-387 0 -414 -1 -429 -18z"/>
<path d="M2076 2028 c-21 -30 -20 -54 4 -78 19 -19 33 -20 313 -20 272 0 295
1 310 18 22 24 21 65 -1 85 -16 15 -53 17 -315 17 -294 0 -296 0 -311 -22z"/>
</g>
</svg>
